<svg width="25" height="25" viewBox="0 0 25 25" fill="none" xmlns="http://www.w3.org/2000/svg">
    <path d="M15.8828 16.7812L17.6328 15.0312C17.8685 14.7984 18.1667 14.6391 18.4912 14.5725C18.8157 14.506 19.1526 14.535 19.4609 14.6562L21.5937 15.5078C21.9053 15.6343 22.1725 15.8501 22.3615 16.1282C22.5506 16.4062 22.6532 16.734 22.6562 17.0703V20.9765C22.6544 21.2053 22.6063 21.4313 22.5149 21.6409C22.4234 21.8506 22.2905 22.0396 22.1241 22.1965C21.9576 22.3534 21.7612 22.4751 21.5465 22.5541C21.3319 22.6331 21.1034 22.6678 20.875 22.6562C5.92967 21.7265 2.91405 9.07028 2.34373 4.22653C2.31726 3.98867 2.34145 3.7479 2.41471 3.52006C2.48797 3.29221 2.60864 3.08247 2.76878 2.90461C2.92893 2.72675 3.12492 2.58482 3.34386 2.48815C3.56279 2.39147 3.79972 2.34225 4.03905 2.34372H7.81248C8.14921 2.34472 8.47794 2.44643 8.75639 2.63578C9.03483 2.82512 9.25027 3.09344 9.37498 3.40622L10.2265 5.53903C10.3517 5.84612 10.3837 6.18329 10.3184 6.50842C10.2531 6.83355 10.0934 7.13223 9.85936 7.36716L8.10936 9.11716C8.10936 9.11716 9.11717 15.9375 15.8828 16.7812Z" fill="#2F80ED"/>
</svg>
